<svg xmlns="http://www.w3.org/2000/svg" viewBox="0 0 370.94 358.95"><defs><style>.cls-1{fill:#04111c;}.cls-2{fill:none;stroke:#04111c;stroke-miterlimit:10;}.cls-3{fill:#8cc63f;}</style></defs><title>Datový zdroj 10</title><g id="Vrstva_2" data-name="Vrstva 2"><g id="Vrstva_1-2" data-name="Vrstva 1"><path class="cls-1" d="M7.2,1.5V3H294.81A4.2,4.2,0,0,1,299,7.2V351.76a4.2,4.2,0,0,1-4.19,4.19H7.2A4.2,4.2,0,0,1,3,351.76V7.2A4.2,4.2,0,0,1,7.2,3V0A7.2,7.2,0,0,0,0,7.2V351.76A7.19,7.19,0,0,0,7.2,359H294.81a7.19,7.19,0,0,0,7.19-7.19V7.2A7.19,7.19,0,0,0,294.81,0H7.2Z"/><line class="cls-2" x1="1.94" y1="29.37" x2="300.94" y2="29.37"/><line class="cls-2" x1="220.94" y1="344.37" x2="220.94" y2="45.37"/><line class="cls-2" x1="210.94" y1="344.37" x2="210.94" y2="45.37"/><line class="cls-2" x1="200.94" y1="344.37" x2="200.94" y2="45.37"/><line class="cls-2" x1="190.94" y1="344.37" x2="190.94" y2="45.37"/><line class="cls-2" x1="180.94" y1="344.37" x2="180.94" y2="45.37"/><line class="cls-2" x1="170.94" y1="344.37" x2="170.94" y2="45.37"/><line class="cls-2" x1="160.94" y1="344.37" x2="160.94" y2="45.37"/><line class="cls-2" x1="150.94" y1="344.37" x2="150.94" y2="45.37"/><line class="cls-2" x1="140.94" y1="344.37" x2="140.94" y2="45.37"/><line class="cls-2" x1="130.94" y1="344.37" x2="130.94" y2="45.37"/><line class="cls-2" x1="120.94" y1="344.37" x2="120.94" y2="45.37"/><line class="cls-2" x1="110.94" y1="344.37" x2="110.94" y2="45.37"/><line class="cls-2" x1="100.94" y1="344.37" x2="100.94" y2="45.37"/><line class="cls-2" x1="90.94" y1="344.37" x2="90.94" y2="45.37"/><line class="cls-2" x1="80.94" y1="344.37" x2="80.94" y2="45.37"/><line class="cls-2" x1="70.94" y1="344.37" x2="70.94" y2="45.37"/><line class="cls-2" x1="60.94" y1="344.37" x2="60.94" y2="45.37"/><line class="cls-2" x1="50.94" y1="344.37" x2="50.94" y2="45.37"/><line class="cls-2" x1="40.94" y1="344.37" x2="40.94" y2="45.37"/><line class="cls-2" x1="30.94" y1="344.37" x2="30.94" y2="45.37"/><line class="cls-2" x1="20.94" y1="344.37" x2="20.94" y2="45.37"/><line class="cls-2" x1="280.94" y1="344.37" x2="280.94" y2="45.37"/><line class="cls-2" x1="270.94" y1="344.37" x2="270.94" y2="45.37"/><line class="cls-2" x1="260.94" y1="344.37" x2="260.94" y2="45.37"/><line class="cls-2" x1="250.94" y1="344.37" x2="250.94" y2="45.37"/><line class="cls-2" x1="240.94" y1="344.37" x2="240.94" y2="45.37"/><line class="cls-2" x1="230.94" y1="344.37" x2="230.94" y2="45.37"/><polyline class="cls-3" points="151.07 201.92 162.38 201.92 162.38 188.62 151.07 188.62"/><path class="cls-3" d="M348.27,201.92h22.67v-13.3H348.27Zm-34.76,0h22.67v-13.3H313.51Zm-34.76,0h22.67v-13.3H278.75Zm-34.76,0h22.67v-13.3H244Zm-34.76,0H231.9v-13.3H209.23Zm-34.76,0h22.67v-13.3H174.47Z"/></g></g></svg>