<svg xmlns="http://www.w3.org/2000/svg" viewBox="0 0 302 358.95"><title>Datový zdroj 2</title><g id="Vrstva_2" data-name="Vrstva 2"><g id="Vrstva_1-2" data-name="Vrstva 1"><path d="M7.2,1.5V3H294.81A4.2,4.2,0,0,1,299,7.2V351.76a4.2,4.2,0,0,1-4.19,4.19H7.2A4.2,4.2,0,0,1,3,351.76V7.2A4.2,4.2,0,0,1,7.2,3V0A7.2,7.2,0,0,0,0,7.2V351.76A7.19,7.19,0,0,0,7.2,359H294.81a7.19,7.19,0,0,0,7.19-7.19V7.2A7.19,7.19,0,0,0,294.81,0H7.2Z"/><path d="M22.86,18.59v.5H139.61a5.21,5.21,0,0,1,5.2,5.19V85.5a5.21,5.21,0,0,1-5.2,5.2H22.86a5.19,5.19,0,0,1-5.2-5.2V24.28a5.19,5.19,0,0,1,5.2-5.19v-1a6.2,6.2,0,0,0-6.2,6.19V85.5a6.2,6.2,0,0,0,6.2,6.2H139.61a6.2,6.2,0,0,0,6.2-6.2V24.28a6.2,6.2,0,0,0-6.2-6.19H22.86Z"/><path d="M22.86,102.59v.5H139.61a5.21,5.21,0,0,1,5.2,5.2v61.22a5.22,5.22,0,0,1-5.2,5.2H22.86a5.21,5.21,0,0,1-5.2-5.2V108.29a5.19,5.19,0,0,1,5.2-5.2v-1a6.2,6.2,0,0,0-6.2,6.2v61.22a6.21,6.21,0,0,0,6.2,6.2H139.61a6.21,6.21,0,0,0,6.2-6.2V108.29a6.2,6.2,0,0,0-6.2-6.2H22.86Z"/><path d="M22.86,186.6v.5H139.61a5.21,5.21,0,0,1,5.2,5.19v61.23a5.21,5.21,0,0,1-5.2,5.19H22.86a5.19,5.19,0,0,1-5.2-5.19V192.29a5.19,5.19,0,0,1,5.2-5.19v-1a6.2,6.2,0,0,0-6.2,6.19v61.23a6.2,6.2,0,0,0,6.2,6.19H139.61a6.2,6.2,0,0,0,6.2-6.19V192.29a6.2,6.2,0,0,0-6.2-6.19H22.86Z"/><path d="M22.86,270.6v.5H139.61a5.21,5.21,0,0,1,5.2,5.2v61.22a5.22,5.22,0,0,1-5.2,5.2H22.86a5.21,5.21,0,0,1-5.2-5.2V276.3a5.19,5.19,0,0,1,5.2-5.2v-1a6.2,6.2,0,0,0-6.2,6.2v61.22a6.21,6.21,0,0,0,6.2,6.2H139.61a6.21,6.21,0,0,0,6.2-6.2V276.3a6.2,6.2,0,0,0-6.2-6.2H22.86Z"/><path d="M163.81,18.59v.5H280.57a5.19,5.19,0,0,1,5.19,5.19V85.5a5.19,5.19,0,0,1-5.19,5.2H163.81a5.19,5.19,0,0,1-5.19-5.2V24.28a5.19,5.19,0,0,1,5.19-5.19v-1a6.19,6.19,0,0,0-6.19,6.19V85.5a6.19,6.19,0,0,0,6.19,6.2H280.57a6.19,6.19,0,0,0,6.19-6.2V24.28a6.19,6.19,0,0,0-6.19-6.19H163.81Z"/><path d="M163.81,102.59v.5H280.57a5.19,5.19,0,0,1,5.19,5.2v61.22a5.21,5.21,0,0,1-5.19,5.2H163.81a5.21,5.21,0,0,1-5.19-5.2V108.29a5.19,5.19,0,0,1,5.19-5.2v-1a6.19,6.19,0,0,0-6.19,6.2v61.22a6.2,6.2,0,0,0,6.19,6.2H280.57a6.2,6.2,0,0,0,6.19-6.2V108.29a6.19,6.19,0,0,0-6.19-6.2H163.81Z"/><path d="M163.81,186.6v.5H280.57a5.19,5.19,0,0,1,5.19,5.19v61.23a5.19,5.19,0,0,1-5.19,5.19H163.81a5.19,5.19,0,0,1-5.19-5.19V192.29a5.19,5.19,0,0,1,5.19-5.19v-1a6.19,6.19,0,0,0-6.19,6.19v61.23a6.19,6.19,0,0,0,6.19,6.19H280.57a6.19,6.19,0,0,0,6.19-6.19V192.29a6.19,6.19,0,0,0-6.19-6.19H163.81Z"/><path d="M163.81,270.6v.5H280.57a5.19,5.19,0,0,1,5.19,5.2v61.22a5.21,5.21,0,0,1-5.19,5.2H163.81a5.21,5.21,0,0,1-5.19-5.2V276.3a5.19,5.19,0,0,1,5.19-5.2v-1a6.19,6.19,0,0,0-6.19,6.2v61.22a6.2,6.2,0,0,0,6.19,6.2H280.57a6.2,6.2,0,0,0,6.19-6.2V276.3a6.19,6.19,0,0,0-6.19-6.2H163.81Z"/></g></g></svg>