<svg xmlns="http://www.w3.org/2000/svg" viewBox="0 0 346.95 265.25"><title>Datový zdroj 3</title><g id="Vrstva_2" data-name="Vrstva 2"><g id="Vrstva_1-2" data-name="Vrstva 1"><path d="M345.45,7.19H344V243.81a4.15,4.15,0,0,1-1.22,3,4.2,4.2,0,0,1-3,1.23H7.2A4.2,4.2,0,0,1,3,243.81V7.19A4.2,4.2,0,0,1,7.2,3H339.76a4.2,4.2,0,0,1,3,1.23,4.15,4.15,0,0,1,1.22,3h3A7.19,7.19,0,0,0,339.76,0H7.2A7.19,7.19,0,0,0,0,7.19V243.81A7.19,7.19,0,0,0,7.2,251H339.76a7.19,7.19,0,0,0,7.19-7.19V7.19Z"/><polygon points="210.35 263.75 210.35 262.25 161.85 262.25 161.85 251.25 208.85 251.25 208.85 263.75 210.35 263.75 210.35 262.25 210.35 263.75 211.85 263.75 211.85 248.25 158.85 248.25 158.85 265.25 211.85 265.25 211.85 263.75 210.35 263.75"/><polygon points="296.35 263.75 296.35 262.25 247.85 262.25 247.85 251.25 294.85 251.25 294.85 263.75 296.35 263.75 296.35 262.25 296.35 263.75 297.85 263.75 297.85 248.25 244.85 248.25 244.85 265.25 297.85 265.25 297.85 263.75 296.35 263.75"/><path d="M132.29,138.11v.5H229a5.19,5.19,0,0,1,5.2,5.19V171a5.19,5.19,0,0,1-5.2,5.19H132.29A5.19,5.19,0,0,1,127.1,171V143.8a5.19,5.19,0,0,1,5.19-5.19v-1a6.19,6.19,0,0,0-6.19,6.19V171a6.19,6.19,0,0,0,6.19,6.19H229a6.19,6.19,0,0,0,6.2-6.19V143.8a6.19,6.19,0,0,0-6.2-6.19H132.29Z"/><path d="M26.35,17.75h-.5A6.5,6.5,0,1,1,24,13.16a6.47,6.47,0,0,1,1.9,4.59h1a7.5,7.5,0,1,0-7.5,7.5,7.5,7.5,0,0,0,7.5-7.5Z"/><path d="M26.35,127.75h-.5a6.5,6.5,0,1,1-1.9-4.59,6.47,6.47,0,0,1,1.9,4.59h1a7.5,7.5,0,1,0-7.5,7.5,7.5,7.5,0,0,0,7.5-7.5Z"/><path d="M26.35,233.75h-.5a6.5,6.5,0,1,1-1.9-4.59,6.47,6.47,0,0,1,1.9,4.59h1a7.5,7.5,0,1,0-7.5,7.5,7.5,7.5,0,0,0,7.5-7.5Z"/><path d="M334.35,17.75h-.5a6.5,6.5,0,1,1-1.9-4.59,6.47,6.47,0,0,1,1.9,4.59h1a7.5,7.5,0,1,0-7.5,7.5,7.5,7.5,0,0,0,7.5-7.5Z"/><path d="M334.35,127.75h-.5a6.5,6.5,0,1,1-1.9-4.59,6.47,6.47,0,0,1,1.9,4.59h1a7.5,7.5,0,1,0-7.5,7.5,7.5,7.5,0,0,0,7.5-7.5Z"/><path d="M334.35,233.75h-.5a6.5,6.5,0,1,1-1.9-4.59,6.47,6.47,0,0,1,1.9,4.59h1a7.5,7.5,0,1,0-7.5,7.5,7.5,7.5,0,0,0,7.5-7.5Z"/></g></g></svg>