<svg xmlns="http://www.w3.org/2000/svg" viewBox="0 0 281.5 318.25"><defs><style>.cls-1,.cls-2{fill:none;stroke:#04111c;stroke-miterlimit:10;}.cls-1{stroke-width:2.5px;}</style></defs><title>Datový zdroj 8</title><g id="Vrstva_2" data-name="Vrstva 2"><g id="Vrstva_2-2" data-name="Vrstva 2"><path class="cls-1" d="M4.38,1.25H277.13a3.12,3.12,0,0,1,3.12,3.12V175.13a3.12,3.12,0,0,1-3.12,3.12H4.38a3.13,3.13,0,0,1-3.12-3.12V4.38A3.13,3.13,0,0,1,4.38,1.25Z"/><rect class="cls-1" x="23.5" y="178.25" width="53" height="19" rx="3.13" ry="3.13"/><rect class="cls-1" x="200.5" y="178.25" width="53" height="19" rx="3.13" ry="3.13"/><line class="cls-2" x1="213.5" y1="318.25" x2="213.5" y2="197.25"/><line class="cls-2" x1="223.5" y1="318.25" x2="223.5" y2="197.25"/><line class="cls-2" x1="230.5" y1="318.25" x2="230.5" y2="197.25"/><line class="cls-2" x1="240.5" y1="318.25" x2="240.5" y2="197.25"/><line class="cls-2" x1="36.5" y1="241.25" x2="36.5" y2="197.25"/><line class="cls-2" x1="46.5" y1="241.25" x2="46.5" y2="197.25"/><line class="cls-2" x1="53.5" y1="241.25" x2="53.5" y2="197.25"/><line class="cls-2" x1="63.5" y1="241.25" x2="63.5" y2="197.25"/><path class="cls-1" d="M52.25,241.75v10.66c0,4.26,2.81,6.75,6.25,6.75h0c3.44,0,6.25-2.49,6.25-6.75V241.75Z"/><path class="cls-1" d="M35.25,241.75v10.66c0,4.26,2.81,6.75,6.25,6.75h0c3.44,0,6.25-2.49,6.25-6.75V241.75Z"/></g></g></svg>