<svg xmlns="http://www.w3.org/2000/svg" viewBox="0 0 289.35 273.14"><defs><style>.cls-1{fill:#04111c;}</style></defs><title>Datový zdroj 7</title><g id="Vrstva_2" data-name="Vrstva 2"><g id="Vrstva_1-2" data-name="Vrstva 1"><path class="cls-1" d="M285.11,271.92v-1.21H4.24a1.81,1.81,0,0,1-1.81-1.81V61A1.79,1.79,0,0,1,3,59.7a1.82,1.82,0,0,1,1.28-.53H285.11a1.82,1.82,0,0,1,1.28.53,1.79,1.79,0,0,1,.53,1.27V268.9a1.81,1.81,0,0,1-1.81,1.81v2.43a4.24,4.24,0,0,0,4.24-4.24V61a4.23,4.23,0,0,0-4.24-4.23H4.24A4.23,4.23,0,0,0,0,61V268.9a4.24,4.24,0,0,0,4.24,4.24H285.11Z"/><polygon class="cls-1" points="214.99 186.01 214.99 185.61 75.17 185.61 75.17 119.14 214.58 119.14 214.58 186.01 214.99 186.01 214.99 185.61 214.99 186.01 215.39 186.01 215.39 118.33 74.36 118.33 74.36 186.42 215.39 186.42 215.39 186.01 214.99 186.01"/><path class="cls-1" d="M104.35,225.73H104a7.7,7.7,0,1,1-2.26-5.45,7.65,7.65,0,0,1,2.26,5.45h.81a8.51,8.51,0,1,0-8.51,8.51,8.51,8.51,0,0,0,8.51-8.51Z"/><path class="cls-1" d="M136.77,225.73h-.4a7.7,7.7,0,1,1-2.26-5.45,7.65,7.65,0,0,1,2.26,5.45h.81a8.51,8.51,0,1,0-8.51,8.51,8.51,8.51,0,0,0,8.51-8.51Z"/><path class="cls-1" d="M169.19,225.73h-.4a7.7,7.7,0,1,1-2.26-5.45,7.65,7.65,0,0,1,2.26,5.45h.81a8.51,8.51,0,1,0-8.51,8.51,8.51,8.51,0,0,0,8.51-8.51Z"/><path class="cls-1" d="M201.61,225.73h-.4a7.7,7.7,0,1,1-2.26-5.45,7.65,7.65,0,0,1,2.26,5.45H202a8.51,8.51,0,1,0-8.51,8.51,8.51,8.51,0,0,0,8.51-8.51Z"/><polygon class="cls-1" points="70.92 50.66 70.92 49.44 51.87 49.44 51.87 58.36 72.14 58.36 72.14 49.44 70.92 49.44 70.92 50.66 69.7 50.66 69.7 55.92 54.3 55.92 54.3 51.87 70.92 51.87 70.92 50.66 69.7 50.66 70.92 50.66"/><polygon class="cls-1" points="67.68 0.41 67.68 0 55.92 0 55.92 51.06 68.08 51.06 68.08 0 67.68 0 67.68 0.41 67.27 0.41 67.27 50.25 56.73 50.25 56.73 0.81 67.68 0.81 67.68 0.41 67.27 0.41 67.68 0.41"/></g></g></svg>